<svg xmlns="http://www.w3.org/2000/svg" width="600" height="200" viewBox="0 0 600 200"><rect width="100%" height="100%" fill="#7C3AED"/><path fill="#FFFFFF" d="M130.725 115.75h8.16q2.25 0 3.78-.54t2.44-1.44q.92-.9 1.32-2.1.41-1.2.41-2.55 0-1.41-.45-2.53-.45-1.13-1.41-1.92-.96-.8-2.47-1.22-1.52-.42-3.65-.42h-8.13zm6.87-30.84h-6.87v12.54h6.42q4.14 0 6.25-1.5 2.12-1.5 2.12-4.77 0-3.39-1.92-4.83t-6-1.44m-14.94-6.24h14.94q4.26 0 7.29.81t4.97 2.31q1.93 1.5 2.83 3.63t.9 4.8q0 1.53-.45 2.93-.45 1.39-1.4 2.61-.94 1.21-2.39 2.2-1.46.99-3.47 1.68 8.94 2.01 8.94 9.66 0 2.76-1.05 5.1t-3.06 4.04q-2.01 1.69-4.95 2.65t-6.72.96h-16.38zm44.19 24.45h13.98q0-1.44-.41-2.71-.4-1.28-1.21-2.24t-2.06-1.51q-1.24-.56-2.89-.56-3.21 0-5.05 1.83-1.85 1.83-2.36 5.19m18.9 4.47h-19.05q.18 2.37.84 4.09.66 1.73 1.74 2.86 1.08 1.12 2.56 1.68 1.49.55 3.29.55t3.1-.42q1.31-.42 2.28-.93.98-.51 1.71-.93.74-.42 1.43-.42.93 0 1.38.69l2.13 2.7q-1.23 1.44-2.76 2.42-1.53.97-3.2 1.56-1.66.58-3.39.82-1.72.24-3.34.24-3.21 0-5.97-1.06-2.76-1.07-4.8-3.15-2.04-2.09-3.21-5.16-1.17-3.08-1.17-7.13 0-3.15 1.02-5.92 1.02-2.78 2.93-4.83 1.9-2.06 4.64-3.26 2.75-1.2 6.2-1.2 2.91 0 5.37.93t4.23 2.72q1.77 1.78 2.77 4.38 1.01 2.59 1.01 5.92 0 1.68-.36 2.27-.36.58-1.38.58m17.55 14.94q-4.02 0-6.17-2.26-2.14-2.27-2.14-6.26V96.82h-3.15q-.6 0-1.02-.39t-.42-1.17v-2.94l4.95-.81 1.56-8.4q.15-.6.57-.93t1.08-.33h3.84v9.69h8.22v5.28h-8.22v16.68q0 1.44.7 2.25.71.81 1.94.81.69 0 1.15-.16.47-.17.81-.35.35-.18.62-.34.27-.17.54-.17.33 0 .54.17.21.16.45.49l2.22 3.6q-1.62 1.35-3.72 2.04t-4.35.69m22.32 0q-4.02 0-6.17-2.26-2.14-2.27-2.14-6.26V96.82h-3.15q-.6 0-1.02-.39t-.42-1.17v-2.94l4.95-.81 1.56-8.4q.15-.6.57-.93t1.08-.33h3.84v9.69h8.22v5.28h-8.22v16.68q0 1.44.7 2.25.71.81 1.94.81.69 0 1.15-.16.47-.17.81-.35.35-.18.62-.34.27-.17.54-.17.33 0 .54.17.21.16.45.49l2.22 3.6q-1.62 1.35-3.72 2.04t-4.35.69m17.91-19.41h13.98q0-1.44-.41-2.71-.4-1.28-1.21-2.24t-2.06-1.51q-1.24-.56-2.89-.56-3.21 0-5.06 1.83-1.84 1.83-2.35 5.19m18.9 4.47h-19.05q.18 2.37.84 4.09.66 1.73 1.74 2.86 1.08 1.12 2.56 1.68 1.49.55 3.29.55t3.1-.42q1.31-.42 2.28-.93.98-.51 1.71-.93.74-.42 1.43-.42.93 0 1.38.69l2.13 2.7q-1.23 1.44-2.76 2.42-1.53.97-3.2 1.56-1.66.58-3.39.82-1.72.24-3.34.24-3.21 0-5.97-1.06-2.76-1.07-4.8-3.15-2.04-2.09-3.21-5.16-1.17-3.08-1.17-7.13 0-3.15 1.02-5.92 1.02-2.78 2.92-4.83 1.91-2.06 4.65-3.26 2.75-1.2 6.2-1.2 2.91 0 5.37.93t4.23 2.72q1.77 1.78 2.77 4.38 1.01 2.59 1.01 5.92 0 1.68-.36 2.27-.36.58-1.38.58m13.83-14.46.45 3.48q1.44-2.76 3.42-4.33 1.98-1.58 4.68-1.58 2.13 0 3.42.93l-.48 5.55q-.15.54-.44.76-.28.23-.76.23-.45 0-1.34-.15-.88-.15-1.72-.15-1.23 0-2.19.36t-1.73 1.03q-.76.68-1.35 1.64-.58.96-1.09 2.19v18.96h-7.41V91.27h4.35q1.14 0 1.59.4.45.41.6 1.46m39.66 22.62h8.16q2.25 0 3.78-.54t2.44-1.44q.92-.9 1.32-2.1.41-1.2.41-2.55 0-1.41-.45-2.53-.45-1.13-1.41-1.92-.96-.8-2.48-1.22-1.51-.42-3.64-.42h-8.13zm6.87-30.84h-6.87v12.54h6.42q4.14 0 6.25-1.5 2.12-1.5 2.12-4.77 0-3.39-1.92-4.83t-6-1.44m-14.94-6.24h14.94q4.26 0 7.29.81t4.96 2.31q1.94 1.5 2.84 3.63t.9 4.8q0 1.53-.45 2.93-.45 1.39-1.4 2.61-.94 1.21-2.4 2.2-1.45.99-3.46 1.68 8.94 2.01 8.94 9.66 0 2.76-1.05 5.1t-3.06 4.04q-2.01 1.69-4.95 2.65t-6.72.96h-16.38zm38.43-1.2h7.41v44.58h-7.41zm28.44 13.32q3.42 0 6.22 1.11 2.81 1.11 4.8 3.15 2 2.04 3.08 4.98t1.08 6.57q0 3.66-1.08 6.6t-3.08 5.01q-1.99 2.07-4.8 3.18-2.8 1.11-6.22 1.11-3.45 0-6.27-1.11t-4.82-3.18q-1.99-2.07-3.09-5.01-1.09-2.94-1.09-6.6 0-3.63 1.09-6.57 1.1-2.94 3.09-4.98 2-2.04 4.82-3.15t6.27-1.11m0 26.01q3.84 0 5.68-2.58 1.85-2.58 1.85-7.56t-1.85-7.59q-1.84-2.61-5.68-2.61-3.9 0-5.78 2.63-1.87 2.62-1.87 7.57t1.87 7.55q1.88 2.59 5.78 2.59m44.85-21.72-1.95 2.7q-.33.42-.65.66-.31.24-.91.24-.57 0-1.11-.34-.54-.35-1.29-.78-.75-.44-1.79-.78-1.03-.35-2.56-.35-1.95 0-3.42.71-1.47.7-2.45 2.02-.97 1.32-1.45 3.19-.48 1.88-.48 4.25 0 2.46.52 4.38.53 1.92 1.52 3.23.99 1.3 2.4 1.97 1.41.68 3.18.68t2.86-.44q1.1-.43 1.85-.95.75-.53 1.3-.96.56-.44 1.25-.44.9 0 1.35.69l2.13 2.7q-1.23 1.44-2.67 2.42-1.44.97-2.99 1.56-1.54.58-3.18.82-1.63.24-3.25.24-2.85 0-5.37-1.06-2.52-1.07-4.41-3.11t-2.99-4.99q-1.09-2.96-1.09-6.74 0-3.39.97-6.28.98-2.9 2.87-5.01 1.89-2.12 4.68-3.32t6.42-1.2q3.45 0 6.04 1.11 2.6 1.11 4.67 3.18m4.92-17.61h7.41V103h1.38q.75 0 1.18-.2.44-.19.89-.79l7.65-9.45q.48-.63 1.06-.96.59-.33 1.52-.33h6.78l-9.57 11.43q-1.02 1.35-2.22 2.07.63.45 1.12 1.05.5.6.95 1.29l10.26 14.94h-6.69q-.87 0-1.5-.28-.63-.29-1.05-1.04l-7.86-11.67q-.42-.69-.87-.9t-1.35-.21h-1.68v14.1h-7.41zm52.53 17.13-1.68 2.67q-.3.48-.63.67-.33.2-.84.2-.54 0-1.16-.3-.61-.3-1.42-.67-.81-.38-1.85-.68-1.03-.3-2.44-.3-2.19 0-3.44.93-1.24.93-1.24 2.43 0 .99.64 1.66.65.68 1.71 1.19 1.07.51 2.42.92 1.35.4 2.74.88 1.4.48 2.75 1.1 1.35.61 2.41 1.55 1.07.95 1.71 2.27.65 1.32.65 3.18 0 2.22-.8 4.1-.79 1.87-2.35 3.23-1.56 1.37-3.86 2.14-2.29.76-5.29.76-1.59 0-3.11-.28-1.51-.29-2.91-.8-1.39-.51-2.58-1.2-1.18-.69-2.08-1.5l1.71-2.82q.33-.51.78-.78t1.14-.27 1.3.39q.62.39 1.43.84t1.9.84q1.1.39 2.78.39 1.32 0 2.26-.31.95-.32 1.56-.83.62-.51.9-1.19.29-.67.29-1.39 0-1.08-.65-1.77-.64-.69-1.71-1.2-1.06-.51-2.43-.91-1.36-.41-2.79-.89-1.42-.48-2.79-1.12-1.36-.65-2.43-1.64-1.06-.99-1.71-2.43-.64-1.44-.64-3.48 0-1.89.75-3.6t2.2-2.98q1.46-1.28 3.63-2.04 2.18-.77 5.03-.77 3.18 0 5.79 1.05t4.35 2.76"/></svg>